<svg width="30" height="32" viewBox="0 0 30 32" fill="none" xmlns="http://www.w3.org/2000/svg">
<g id="Vector">
<path d="M21.0264 28.5859C20.9477 28.5887 20.869 28.5952 20.7902 28.5952C15.4048 28.5952 10.0186 28.5952 4.63315 28.5952C4.56408 28.5952 4.49501 28.5902 4.42668 28.588C4.42594 27.1851 4.42445 25.7821 4.42297 24.3791C4.42297 24.2562 4.42297 24.1355 4.3836 24.0118C4.31824 23.8077 4.17713 23.7179 3.97139 23.7064C3.75898 23.6942 3.6134 23.7869 3.54285 23.9852C3.49457 24.1218 3.476 24.2605 3.476 24.4057C3.47823 25.7993 3.476 27.1922 3.47452 28.5859C2.67535 28.5887 1.87619 28.5974 1.07777 28.5916C0.693781 28.5887 0.5185 28.4004 0.517757 28.0181C0.514786 26.7768 0.475422 25.5341 0.524441 24.295C0.567519 23.2054 0.987897 22.2222 1.6764 21.3525C2.55652 20.2406 3.74858 19.6297 5.12409 19.2732C6.10968 19.0181 7.07521 18.6882 8.04965 18.3928C8.08531 18.382 8.12541 18.3834 8.16329 18.3791C8.31406 18.5142 8.46855 18.6443 8.61412 18.7845C9.58559 19.7217 10.5541 20.6618 11.5248 21.599C11.7766 21.842 12.0603 21.9016 12.2913 21.7248C12.7912 21.341 13.2776 20.9407 13.7285 20.5023C13.747 20.4958 13.7663 20.4922 13.7864 20.4915C14.1147 20.8882 14.5625 21.1599 14.9332 21.5121C15.361 21.9189 15.6647 21.9138 16.0933 21.5042C16.6674 20.9551 17.2438 20.4067 17.8186 19.8583C18.0466 19.8626 18.2546 19.9495 18.4715 20.0027C19.027 20.14 19.5618 20.352 20.1322 20.4354C20.0609 20.513 19.9903 20.5928 19.9175 20.669C19.4853 21.1189 19.2001 21.6587 18.9498 22.2121C18.6 22.9862 18.542 23.8084 18.594 24.6429C18.6274 25.187 18.7886 25.7016 19.0077 26.1954C19.4422 27.1771 20.1522 27.9483 21.0272 28.5851L21.0264 28.5859Z" fill="#4CBAD8"/>
<path d="M13.7864 20.4915C13.7663 20.4915 13.747 20.4958 13.7285 20.5023C13.1462 20.0473 12.5631 19.5938 11.9823 19.1374C11.4632 18.7298 10.9151 18.3568 10.4226 17.9177C10.8735 17.6769 11.0703 17.2981 11.0658 16.8094C11.0629 16.4752 11.1602 16.0993 11.0317 15.8197C10.9032 15.5394 10.488 15.4467 10.2072 15.2605C8.94314 14.4239 8.09422 13.2948 7.66716 11.8702C7.63448 11.7603 7.5966 11.6525 7.56095 11.5432C7.54238 11.5281 7.52455 11.5137 7.50599 11.4987L7.50747 11.4821C7.40275 10.4709 7.36561 9.45744 7.38418 8.44115C7.40869 8.2435 7.40943 8.04082 7.4124 7.84532C7.41834 7.50248 7.58249 7.20349 7.61591 6.87C7.66493 6.37766 7.7949 6.2871 8.24722 6.20732C9.01667 6.07148 9.77127 6.1987 10.5281 6.29716C10.9054 6.34604 11.2493 6.57747 11.5932 6.63281C12.2846 6.74494 12.9404 6.96128 13.6015 7.14815C14.8292 7.4953 16.0643 7.70373 17.344 7.63976C17.4651 7.73679 17.4651 7.86976 17.4651 8.0056C17.4636 8.61652 17.451 9.22817 17.4681 9.83909C17.4963 10.8223 17.3566 11.7696 16.9311 12.6731C16.5241 13.5377 15.9492 14.2701 15.1968 14.8803C14.4311 15.5006 13.5569 15.9095 12.5461 16.164C12.9278 16.2754 13.2658 16.3235 13.6104 16.3034C13.7886 16.2933 13.8555 16.3537 13.851 16.5312C13.8406 16.951 13.8473 17.3714 13.848 17.7919C13.848 18.4625 14.1644 18.8362 14.8411 19.0137C15.0275 19.0626 15.257 19.0281 15.3907 19.2179C15.2934 19.2969 15.1968 19.3767 15.0988 19.4551C14.6613 19.8008 14.2239 20.1458 13.7857 20.4915H13.7864Z" fill="#FCE0A2"/>
<path d="M17.344 7.64048C16.0643 7.70445 14.8292 7.49601 13.6015 7.14886C12.9404 6.96199 12.2846 6.74565 11.5932 6.63353C11.2493 6.57819 10.9054 6.34676 10.5281 6.29788C9.77127 6.19941 9.01667 6.0722 8.24722 6.20804C7.79564 6.28782 7.66567 6.37838 7.61591 6.87071C7.58249 7.20421 7.4176 7.5032 7.4124 7.84604C7.40943 8.04153 7.40869 8.24422 7.38418 8.44187C6.88953 8.40162 6.42533 8.45121 6.07625 8.84939C6.07403 8.08609 6.10151 7.32064 6.06437 6.55878C5.99753 5.20109 6.42459 3.98355 7.16508 2.86592C7.62705 2.16947 8.22716 1.58441 8.95131 1.11796C9.94136 0.480437 11.0086 0.103101 12.2029 0.0671642C12.4161 0.0606956 12.6263 -0.0176466 12.8446 0.0218838C12.8795 0.037696 12.913 0.0642892 12.9486 0.0664454C13.7144 0.114601 14.4385 0.334534 15.1136 0.662277C16.7476 1.45576 17.8743 2.69702 18.4811 4.37455C18.8257 5.32615 18.8473 6.3101 18.828 7.30052C18.6408 7.3767 18.4447 7.42198 18.2509 7.47804C17.953 7.56501 17.6225 7.46583 17.3433 7.63976L17.344 7.64048Z" fill="#F9A058"/>
<path d="M17.344 7.64048C17.6225 7.46655 17.953 7.56573 18.2516 7.47876C18.4447 7.42198 18.6415 7.37742 18.8287 7.30124C19.0129 7.31202 19.1741 7.23871 19.333 7.16755C19.9071 6.91024 19.8841 6.91312 20.0245 7.52836C20.0943 7.83598 19.9955 8.15438 20.1322 8.44906C20.1292 9.46032 20.1708 10.4737 20.0104 11.48L20.0148 11.4972C19.9963 11.513 19.9784 11.5281 19.9599 11.5439C19.7111 12.4229 19.3427 13.243 18.7478 13.961C18.1811 14.6446 17.5156 15.2131 16.7053 15.6062C16.5025 15.7047 16.4334 15.8168 16.4483 16.0231C16.4639 16.2315 16.4698 16.4443 16.4483 16.6513C16.3911 17.1982 16.6058 17.6137 17.0618 17.9249C16.5047 18.3561 15.9477 18.7873 15.3907 19.2186C15.257 19.0296 15.0275 19.0633 14.8411 19.0145C14.1637 18.8369 13.848 18.4632 13.848 17.7926C13.848 17.3722 13.8406 16.9524 13.851 16.532C13.8555 16.3544 13.7879 16.2933 13.6104 16.3041C13.265 16.3242 12.9278 16.2761 12.5461 16.1647C13.5576 15.911 14.4311 15.502 15.1968 14.881C15.9492 14.2715 16.5241 13.5384 16.9311 12.6738C17.3566 11.7703 17.4955 10.823 17.4681 9.83981C17.451 9.22889 17.4636 8.61796 17.4651 8.00632C17.4651 7.87048 17.4651 7.73751 17.344 7.64048Z" fill="#F2CA91"/>
<path d="M20.1322 8.44762C19.9955 8.15294 20.0943 7.83454 20.0245 7.52692C19.8849 6.91168 19.9071 6.90881 19.333 7.16611C19.1733 7.23799 19.0122 7.31058 18.8287 7.2998C18.8488 6.30938 18.8265 5.32543 18.4819 4.37383C17.8751 2.6963 16.7484 1.45576 15.1144 0.661558C14.4393 0.333815 13.7151 0.113882 12.9494 0.0657267C12.9137 0.0635705 12.8803 0.0362585 12.8454 0.0211651C13.6052 0.0190089 14.3687 -0.0262714 15.1248 0.0226026C17.5223 0.178568 19.3642 1.2538 20.5875 3.26482C21.0814 4.07699 21.3606 4.97541 21.4253 5.9148C21.4936 6.90809 21.4498 7.90569 21.4342 8.90114C21.3183 8.84364 21.2693 8.72361 21.1683 8.64527C20.8526 8.39946 20.4902 8.44618 20.1322 8.44618V8.44762Z" fill="#EF8D43"/>
<path d="M15.3907 19.2179C15.9477 18.7866 16.5047 18.3554 17.0618 17.9241C17.2252 17.7948 17.396 17.7689 17.604 17.835C18.1462 18.0075 18.695 18.1613 19.2417 18.323C19.2662 18.4725 19.1496 18.5451 19.0619 18.6321C18.6482 19.0418 18.2338 19.45 17.8194 19.859C17.2438 20.4074 16.6681 20.9551 16.094 21.5049C15.6655 21.9146 15.361 21.9196 14.9339 21.5128C14.5633 21.1606 14.1154 20.8889 13.7871 20.4922C14.2246 20.1465 14.6628 19.8015 15.1003 19.4558C15.1983 19.3781 15.2949 19.2976 15.3922 19.2186L15.3907 19.2179Z" fill="#2295BD"/>
<path d="M10.4226 17.9177C10.9151 18.3568 11.4632 18.7298 11.9823 19.1374C12.5631 19.5938 13.1462 20.0473 13.7285 20.5023C13.2776 20.9407 12.7912 21.3417 12.2913 21.7248C12.0603 21.9016 11.7766 21.8427 11.5248 21.599C10.5534 20.6618 9.58485 19.7217 8.61412 18.7845C8.46855 18.6443 8.31406 18.5135 8.16329 18.3791C8.57773 18.244 8.98919 18.101 9.40734 17.9788C9.49795 17.9522 9.59302 17.9364 9.67843 17.8947C9.9317 17.7711 10.1798 17.7567 10.4234 17.9177H10.4226Z" fill="#2295BD"/>
<path d="M3.47377 28.5859C3.47452 27.1922 3.47749 25.7993 3.47526 24.4057C3.47526 24.2605 3.49383 24.1218 3.5421 23.9852C3.61266 23.7869 3.75823 23.6949 3.97065 23.7064C4.17638 23.7179 4.3175 23.8077 4.38286 24.0118C4.42222 24.1347 4.42222 24.2555 4.42222 24.3791C4.42371 25.7821 4.42445 27.1851 4.42594 28.588C4.1088 28.6268 3.79091 28.6549 3.47377 28.5859Z" fill="#2295BD"/>
<path d="M17.8186 19.859C18.2331 19.45 18.6475 19.0411 19.0612 18.6321C19.1488 18.5451 19.2662 18.4725 19.2409 18.323C20.1715 18.6573 25.0133 20.1724 25.9662 20.4361C25.7286 20.6395 23.747 20.9903 23.4855 21.1477C23.0778 21.3928 20.4278 20.053 20.1322 20.4361C19.5618 20.352 19.027 20.14 18.4715 20.0034C18.2546 19.9503 18.0466 19.8633 17.8186 19.859Z" fill="#37A6C4"/>
<path d="M6.077 8.84939C6.42533 8.45121 6.89027 8.4009 7.38492 8.44187C7.36561 9.45744 7.40349 10.4716 7.50821 11.4828C7.37007 11.4843 7.23267 11.4879 7.09452 11.4872C6.3882 11.4864 6.00792 11.209 5.93885 10.5348C5.88166 9.97349 5.83264 9.39563 6.077 8.84939Z" fill="#F2CA8F"/>
<path d="M20.1322 8.44762C20.4902 8.44762 20.8526 8.4009 21.1683 8.64671C21.2693 8.72505 21.3176 8.8458 21.4342 8.90258C21.6718 9.51063 21.5753 10.141 21.5263 10.7569C21.4936 11.1702 21.039 11.4749 20.5986 11.4843C20.4025 11.4886 20.2065 11.48 20.0111 11.4778C20.1715 10.4723 20.13 9.45888 20.1329 8.4469L20.1322 8.44762Z" fill="#F2CA8F"/>
<path d="M26.8174 26.9967H22.1591C22.1331 27.1017 22.2148 27.1247 22.2682 27.1642C22.6255 27.4287 22.6767 27.7378 22.5668 28.1194C22.4628 28.4773 22.1093 28.6829 21.7067 28.6656C21.4758 28.6556 21.2849 28.5356 21.1311 28.3925C20.5578 27.8578 19.997 27.3108 19.4392 26.7603C19.0523 26.3779 19.0508 25.969 19.4548 25.5643C20.0081 25.0102 20.5778 24.4711 21.149 23.9349C21.5448 23.5633 22.0365 23.6266 22.3596 23.9213C22.6953 24.2275 22.6923 24.7414 22.3707 25.1029C22.3128 25.1683 22.2586 25.238 22.1724 25.3422H26.8545L26.8181 26.996L26.8174 26.9967Z" fill="#8999AA"/>
<path d="M27.771 26.9967C27.7718 28.0943 27.771 29.1918 27.774 30.2893C27.7762 31.0281 27.4026 31.5312 26.7387 31.8583C26.6718 31.8913 26.5611 31.8748 26.5545 31.9891C26.2952 31.992 26.0368 31.997 25.7776 31.997C23.5643 31.9977 21.351 32.0049 19.1377 31.9941C18.5361 31.9912 18.0867 31.6951 17.7391 31.22C17.5163 30.9153 17.4814 30.5883 17.4822 30.2375C17.4844 27.612 17.4888 24.9864 17.477 22.3602C17.4755 22.0238 17.4398 21.6975 17.5973 21.3798C17.9545 20.6561 18.5613 20.3463 19.3672 20.347C21.5062 20.3484 23.646 20.3463 25.785 20.3492C26.0242 20.3492 26.2655 20.306 26.5032 20.3678C26.5411 20.4742 26.6525 20.4584 26.7312 20.4893C27.2949 20.7085 27.7695 21.3288 27.7718 21.8894C27.7762 23.0408 27.7703 24.1922 27.7681 25.3437" fill="#8999AA"/>
<path d="M26.5537 31.9884C26.5611 31.8741 26.6718 31.8906 26.7379 31.8576C27.4019 31.5305 27.7755 31.0274 27.7733 30.2886C27.7703 29.191 27.771 28.0935 27.7703 26.9967C27.7695 26.4455 27.7681 25.8942 27.7673 25.3429C27.7688 24.1915 27.7755 23.0401 27.771 21.8887C27.7688 21.3281 27.2942 20.7078 26.7305 20.4886C26.651 20.4577 26.5396 20.4735 26.5025 20.3671C27.0818 20.3607 27.6641 20.2866 28.2367 20.439C29.0544 20.6568 29.483 21.2627 29.4882 22.049C29.5068 24.8082 29.4993 27.5674 29.4934 30.3259C29.4912 31.2919 28.6207 31.9833 27.7755 31.9948C27.3685 31.9999 26.9607 31.992 26.5537 31.9898V31.9884Z" fill="#6C8095"/>
<path d="M27.0677 25.3429C27.0684 25.8942 27.0699 26.4455 27.0706 26.9967C25.2005 26.9967 24.03 26.9967 22.1591 26.9967C22.1331 27.1017 22.2148 27.1247 22.2682 27.1642C22.6255 27.4287 22.6767 27.7378 22.5668 28.1194C22.4628 28.4773 22.1093 28.6829 21.7067 28.6656C21.4758 28.6556 21.2849 28.5356 21.1311 28.3925C20.5578 27.8578 19.997 27.3108 19.4392 26.7603C19.0523 26.3779 19.0508 25.969 19.4548 25.5643C20.0081 25.0102 20.5778 24.4711 21.149 23.9349C21.5448 23.5633 22.0365 23.6266 22.3596 23.9213C22.6953 24.2275 22.6923 24.7414 22.3707 25.1029C22.3128 25.1683 22.2586 25.238 22.1724 25.3422H27.0684L27.0677 25.3429Z" fill="white"/>
</g>
</svg>
